<svg xmlns="http://www.w3.org/2000/svg" viewBox="0 0 320 240" role="img" aria-labelledby="title desc">
  <title id="title">Analyst Spymaster</title>
  <desc id="desc">Fantasy spymaster analyst with cipher board and raven sigil</desc>
  <defs>
    <linearGradient id="bg-spymaster" x1="0" y1="0" x2="1" y2="1">
      <stop offset="0%" stop-color="#19131f"/>
      <stop offset="56%" stop-color="#2a3556"/>
      <stop offset="100%" stop-color="#5d482a"/>
    </linearGradient>
    <linearGradient id="cloak-spymaster" x1="0" y1="0" x2="0" y2="1">
      <stop offset="0%" stop-color="#6a88c5"/>
      <stop offset="100%" stop-color="#2a3657"/>
    </linearGradient>
  </defs>
  <rect width="320" height="240" rx="24" fill="url(#bg-spymaster)"/>
  <rect x="28" y="34" width="128" height="88" rx="14" fill="#1e2438" stroke="#ba9251" stroke-width="3"/>
  <rect x="44" y="50" width="22" height="22" rx="4" fill="#f3dfbb"/>
  <rect x="70" y="50" width="22" height="22" rx="4" fill="#2f3d60"/>
  <rect x="96" y="50" width="22" height="22" rx="4" fill="#f3dfbb"/>
  <rect x="122" y="50" width="18" height="22" rx="4" fill="#2f3d60"/>
  <rect x="44" y="76" width="22" height="22" rx="4" fill="#2f3d60"/>
  <rect x="70" y="76" width="22" height="22" rx="4" fill="#f3dfbb"/>
  <rect x="96" y="76" width="22" height="22" rx="4" fill="#2f3d60"/>
  <rect x="122" y="76" width="18" height="22" rx="4" fill="#f3dfbb"/>
  <path d="M214 54 C228 42 246 44 260 56 C250 60 244 66 238 76 C232 66 226 60 214 54 Z" fill="#dee7ff" opacity="0.75"/>
  <circle cx="244" cy="72" r="22" fill="none" stroke="#9fb9ff" stroke-width="4" opacity="0.65"/>
  <path d="M134 194 C140 158 150 132 164 114 C178 96 196 92 212 98 C228 104 240 120 246 144 C250 160 250 176 246 194 Z" fill="url(#cloak-spymaster)"/>
  <circle cx="192" cy="112" r="29" fill="#efc28a"/>
  <path d="M164 104 C170 80 180 70 192 70 C204 70 214 80 220 104 C210 92 174 92 164 104 Z" fill="#1c2233"/>
  <path d="M170 106 Q192 88 214 106" fill="none" stroke="#c3d4ff" stroke-width="3" opacity="0.6"/>
  <circle cx="182" cy="112" r="4" fill="#24170f"/>
  <circle cx="202" cy="112" r="4" fill="#24170f"/>
  <path d="M180 126 Q192 134 204 126" fill="none" stroke="#39271a" stroke-width="3" stroke-linecap="round"/>
  <path d="M148 154 L174 144" stroke="#ba9251" stroke-width="6" stroke-linecap="round"/>
  <circle cx="144" cy="156" r="8" fill="#e2bf73"/>
</svg>
