<svg xmlns="http://www.w3.org/2000/svg" viewBox="0 0 320 240" role="img" aria-labelledby="title desc">
  <title id="title">Engineer</title>
  <desc id="desc">Fantasy artificer engineer with forge tools and runic machine</desc>
  <defs>
    <linearGradient id="bg-engineer" x1="0" y1="0" x2="1" y2="1">
      <stop offset="0%" stop-color="#231a13"/>
      <stop offset="55%" stop-color="#26421f"/>
      <stop offset="100%" stop-color="#7b3f1d"/>
    </linearGradient>
    <linearGradient id="coat-engineer" x1="0" y1="0" x2="0" y2="1">
      <stop offset="0%" stop-color="#4f8e45"/>
      <stop offset="100%" stop-color="#274528"/>
    </linearGradient>
  </defs>
  <rect width="320" height="240" rx="24" fill="url(#bg-engineer)"/>
  <rect x="28" y="36" width="126" height="86" rx="12" fill="#2f2419" stroke="#c98d3b" stroke-width="3"/>
  <rect x="44" y="54" width="18" height="48" rx="4" fill="#d19b45"/>
  <rect x="72" y="48" width="18" height="54" rx="4" fill="#e7bf63"/>
  <rect x="100" y="62" width="18" height="40" rx="4" fill="#8abf74"/>
  <circle cx="236" cy="82" r="24" fill="#1e2a23" stroke="#d8ad55" stroke-width="4"/>
  <circle cx="236" cy="82" r="10" fill="#d8ad55"/>
  <path d="M236 50 L242 60 L254 62 L248 74 L252 86 L240 88 L232 98 L224 88 L212 86 L216 74 L210 62 L222 60 Z" fill="none" stroke="#d8ad55" stroke-width="6" stroke-linejoin="round"/>
  <path d="M130 194 C136 160 146 134 160 118 C174 102 192 98 208 102 C224 106 238 122 244 144 C248 160 248 176 244 194 Z" fill="url(#coat-engineer)"/>
  <circle cx="188" cy="112" r="30" fill="#d9aa6e"/>
  <path d="M158 108 C166 80 176 68 188 68 C200 68 210 80 218 108 L212 118 L164 118 Z" fill="#7f4f23"/>
  <path d="M162 104 H214" stroke="#d8ad55" stroke-width="7" stroke-linecap="round"/>
  <circle cx="176" cy="112" r="4" fill="#21150d"/>
  <circle cx="196" cy="112" r="4" fill="#21150d"/>
  <path d="M174 126 Q188 136 202 126" fill="none" stroke="#352214" stroke-width="3" stroke-linecap="round"/>
  <path d="M124 156 L142 144 L156 160 L144 176 Z" fill="#d8ad55"/>
  <rect x="112" y="166" width="14" height="38" rx="6" fill="#7f4f23" transform="rotate(-26 119 185)"/>
</svg>
